; NON-PLATED HOLES START AT T1
; THROUGH (PLATED) HOLES START AT T100
M48
INCH
T100C0.031250
T101C0.035000
T102C0.038000
T103C0.031497
T104C0.030000
%
T100
X028673Y005826
X028673Y006816
T101
X031444Y020555
X031444Y019555
X008444Y017555
X031444Y021555
X012444Y017555
T102
X006086Y009659
X000444Y012555
X006086Y008655
X000444Y013555
X000444Y014555
X006086Y007659
X016475Y007549
X016475Y009629
X016475Y011709
T103
X012444Y011555
X012444Y010571
T104
X002444Y020555
X001444Y020555
T00
M30
