G04 MADE WITH FRITZING*
G04 WWW.FRITZING.ORG*
G04 DOUBLE SIDED*
G04 HOLES PLATED*
G04 CONTOUR ON CENTER OF CONTOUR VECTOR*
%ASAXBY*%
%FSLAX23Y23*%
%MOIN*%
%OFA0B0*%
%SFA1.0B1.0*%
%ADD10C,0.062992*%
%ADD11C,0.070000*%
%ADD12C,0.078000*%
%ADD13C,0.065972*%
%ADD14C,0.075000*%
%ADD15R,0.062992X0.062992*%
%ADD16R,0.078000X0.078000*%
%ADD17C,0.024000*%
%ADD18R,0.001000X0.001000*%
%LNCOPPER1*%
G90*
G70*
G54D10*
X1244Y1057D03*
X1244Y1156D03*
G54D11*
X144Y2056D03*
X244Y2056D03*
G54D12*
X44Y1456D03*
X44Y1356D03*
X44Y1256D03*
X609Y966D03*
X609Y866D03*
X609Y766D03*
X1648Y1171D03*
X1648Y963D03*
X1648Y755D03*
G54D13*
X2867Y583D03*
X2867Y682D03*
G54D14*
X3144Y2156D03*
X3144Y2056D03*
X3144Y1956D03*
X844Y1756D03*
X1244Y1756D03*
G54D15*
X1244Y1057D03*
G54D16*
X44Y1456D03*
X609Y766D03*
X1648Y1171D03*
X1648Y963D03*
X1648Y755D03*
G54D17*
X2544Y1156D02*
X2282Y1078D01*
D02*
X2282Y1078D02*
X1666Y966D01*
D02*
X944Y756D02*
X628Y765D01*
D02*
X1629Y755D02*
X944Y756D01*
D02*
X610Y785D02*
X644Y1458D01*
D02*
X644Y1458D02*
X63Y1456D01*
G54D18*
X138Y2090D02*
X152Y2090D01*
X238Y2090D02*
X252Y2090D01*
X135Y2089D02*
X155Y2089D01*
X235Y2089D02*
X255Y2089D01*
X132Y2088D02*
X158Y2088D01*
X232Y2088D02*
X258Y2088D01*
X130Y2087D02*
X160Y2087D01*
X230Y2087D02*
X260Y2087D01*
X128Y2086D02*
X162Y2086D01*
X228Y2086D02*
X262Y2086D01*
X126Y2085D02*
X164Y2085D01*
X226Y2085D02*
X264Y2085D01*
X125Y2084D02*
X165Y2084D01*
X225Y2084D02*
X265Y2084D01*
X123Y2083D02*
X166Y2083D01*
X223Y2083D02*
X266Y2083D01*
X122Y2082D02*
X168Y2082D01*
X222Y2082D02*
X268Y2082D01*
X121Y2081D02*
X169Y2081D01*
X221Y2081D02*
X269Y2081D01*
X120Y2080D02*
X170Y2080D01*
X220Y2080D02*
X270Y2080D01*
X119Y2079D02*
X171Y2079D01*
X219Y2079D02*
X271Y2079D01*
X118Y2078D02*
X171Y2078D01*
X218Y2078D02*
X271Y2078D01*
X118Y2077D02*
X172Y2077D01*
X218Y2077D02*
X272Y2077D01*
X117Y2076D02*
X173Y2076D01*
X217Y2076D02*
X273Y2076D01*
X116Y2075D02*
X174Y2075D01*
X216Y2075D02*
X274Y2075D01*
X116Y2074D02*
X174Y2074D01*
X216Y2074D02*
X274Y2074D01*
X115Y2073D02*
X175Y2073D01*
X215Y2073D02*
X275Y2073D01*
X115Y2072D02*
X175Y2072D01*
X215Y2072D02*
X275Y2072D01*
X114Y2071D02*
X176Y2071D01*
X214Y2071D02*
X276Y2071D01*
X114Y2070D02*
X139Y2070D01*
X151Y2070D02*
X176Y2070D01*
X214Y2070D02*
X239Y2070D01*
X251Y2070D02*
X276Y2070D01*
X113Y2069D02*
X137Y2069D01*
X153Y2069D02*
X177Y2069D01*
X213Y2069D02*
X237Y2069D01*
X253Y2069D02*
X277Y2069D01*
X113Y2068D02*
X136Y2068D01*
X154Y2068D02*
X177Y2068D01*
X213Y2068D02*
X236Y2068D01*
X254Y2068D02*
X277Y2068D01*
X112Y2067D02*
X134Y2067D01*
X155Y2067D02*
X177Y2067D01*
X212Y2067D02*
X234Y2067D01*
X255Y2067D02*
X277Y2067D01*
X112Y2066D02*
X133Y2066D01*
X156Y2066D02*
X178Y2066D01*
X212Y2066D02*
X233Y2066D01*
X256Y2066D02*
X278Y2066D01*
X112Y2065D02*
X133Y2065D01*
X157Y2065D02*
X178Y2065D01*
X212Y2065D02*
X233Y2065D01*
X257Y2065D02*
X278Y2065D01*
X112Y2064D02*
X132Y2064D01*
X158Y2064D02*
X178Y2064D01*
X212Y2064D02*
X232Y2064D01*
X258Y2064D02*
X278Y2064D01*
X111Y2063D02*
X131Y2063D01*
X159Y2063D02*
X179Y2063D01*
X211Y2063D02*
X231Y2063D01*
X259Y2063D02*
X279Y2063D01*
X111Y2062D02*
X131Y2062D01*
X159Y2062D02*
X179Y2062D01*
X211Y2062D02*
X231Y2062D01*
X259Y2062D02*
X279Y2062D01*
X111Y2061D02*
X130Y2061D01*
X160Y2061D02*
X179Y2061D01*
X211Y2061D02*
X230Y2061D01*
X260Y2061D02*
X279Y2061D01*
X111Y2060D02*
X130Y2060D01*
X160Y2060D02*
X179Y2060D01*
X211Y2060D02*
X230Y2060D01*
X260Y2060D02*
X279Y2060D01*
X111Y2059D02*
X130Y2059D01*
X160Y2059D02*
X179Y2059D01*
X211Y2059D02*
X230Y2059D01*
X260Y2059D02*
X279Y2059D01*
X111Y2058D02*
X130Y2058D01*
X160Y2058D02*
X179Y2058D01*
X211Y2058D02*
X230Y2058D01*
X260Y2058D02*
X279Y2058D01*
X111Y2057D02*
X130Y2057D01*
X160Y2057D02*
X179Y2057D01*
X210Y2057D02*
X230Y2057D01*
X260Y2057D02*
X279Y2057D01*
X110Y2056D02*
X129Y2056D01*
X160Y2056D02*
X179Y2056D01*
X210Y2056D02*
X229Y2056D01*
X260Y2056D02*
X279Y2056D01*
X110Y2055D02*
X130Y2055D01*
X160Y2055D02*
X179Y2055D01*
X210Y2055D02*
X229Y2055D01*
X260Y2055D02*
X279Y2055D01*
X111Y2054D02*
X130Y2054D01*
X160Y2054D02*
X179Y2054D01*
X211Y2054D02*
X230Y2054D01*
X260Y2054D02*
X279Y2054D01*
X111Y2053D02*
X130Y2053D01*
X160Y2053D02*
X179Y2053D01*
X211Y2053D02*
X230Y2053D01*
X260Y2053D02*
X279Y2053D01*
X111Y2052D02*
X130Y2052D01*
X160Y2052D02*
X179Y2052D01*
X211Y2052D02*
X230Y2052D01*
X260Y2052D02*
X279Y2052D01*
X111Y2051D02*
X130Y2051D01*
X160Y2051D02*
X179Y2051D01*
X211Y2051D02*
X230Y2051D01*
X260Y2051D02*
X279Y2051D01*
X111Y2050D02*
X130Y2050D01*
X159Y2050D02*
X179Y2050D01*
X211Y2050D02*
X230Y2050D01*
X259Y2050D02*
X279Y2050D01*
X111Y2049D02*
X131Y2049D01*
X159Y2049D02*
X179Y2049D01*
X211Y2049D02*
X231Y2049D01*
X259Y2049D02*
X279Y2049D01*
X111Y2048D02*
X132Y2048D01*
X158Y2048D02*
X178Y2048D01*
X211Y2048D02*
X232Y2048D01*
X258Y2048D02*
X278Y2048D01*
X112Y2047D02*
X132Y2047D01*
X158Y2047D02*
X178Y2047D01*
X212Y2047D02*
X232Y2047D01*
X258Y2047D02*
X278Y2047D01*
X112Y2046D02*
X133Y2046D01*
X157Y2046D02*
X178Y2046D01*
X212Y2046D02*
X233Y2046D01*
X257Y2046D02*
X278Y2046D01*
X112Y2045D02*
X134Y2045D01*
X156Y2045D02*
X178Y2045D01*
X212Y2045D02*
X234Y2045D01*
X256Y2045D02*
X277Y2045D01*
X113Y2044D02*
X135Y2044D01*
X155Y2044D02*
X177Y2044D01*
X213Y2044D02*
X235Y2044D01*
X255Y2044D02*
X277Y2044D01*
X113Y2043D02*
X137Y2043D01*
X153Y2043D02*
X177Y2043D01*
X213Y2043D02*
X237Y2043D01*
X253Y2043D02*
X277Y2043D01*
X113Y2042D02*
X138Y2042D01*
X152Y2042D02*
X176Y2042D01*
X213Y2042D02*
X238Y2042D01*
X252Y2042D02*
X276Y2042D01*
X114Y2041D02*
X142Y2041D01*
X147Y2041D02*
X176Y2041D01*
X214Y2041D02*
X242Y2041D01*
X247Y2041D02*
X276Y2041D01*
X114Y2040D02*
X175Y2040D01*
X214Y2040D02*
X275Y2040D01*
X115Y2039D02*
X175Y2039D01*
X215Y2039D02*
X275Y2039D01*
X116Y2038D02*
X174Y2038D01*
X216Y2038D02*
X274Y2038D01*
X116Y2037D02*
X174Y2037D01*
X216Y2037D02*
X274Y2037D01*
X117Y2036D02*
X173Y2036D01*
X217Y2036D02*
X273Y2036D01*
X117Y2035D02*
X172Y2035D01*
X217Y2035D02*
X272Y2035D01*
X118Y2034D02*
X172Y2034D01*
X218Y2034D02*
X272Y2034D01*
X119Y2033D02*
X171Y2033D01*
X219Y2033D02*
X271Y2033D01*
X120Y2032D02*
X170Y2032D01*
X220Y2032D02*
X270Y2032D01*
X121Y2031D02*
X169Y2031D01*
X221Y2031D02*
X269Y2031D01*
X122Y2030D02*
X168Y2030D01*
X222Y2030D02*
X268Y2030D01*
X123Y2029D02*
X167Y2029D01*
X223Y2029D02*
X267Y2029D01*
X124Y2028D02*
X165Y2028D01*
X224Y2028D02*
X265Y2028D01*
X126Y2027D02*
X164Y2027D01*
X226Y2027D02*
X264Y2027D01*
X127Y2026D02*
X162Y2026D01*
X227Y2026D02*
X262Y2026D01*
X129Y2025D02*
X161Y2025D01*
X229Y2025D02*
X261Y2025D01*
X131Y2024D02*
X158Y2024D01*
X231Y2024D02*
X258Y2024D01*
X134Y2023D02*
X156Y2023D01*
X234Y2023D02*
X256Y2023D01*
X137Y2022D02*
X153Y2022D01*
X237Y2022D02*
X253Y2022D01*
X143Y2021D02*
X147Y2021D01*
X243Y2021D02*
X247Y2021D01*
X2216Y1761D02*
X2228Y1761D01*
X2316Y1761D02*
X2328Y1761D01*
X2416Y1761D02*
X2428Y1761D01*
X2601Y1761D02*
X2613Y1761D01*
X2695Y1761D02*
X2707Y1761D01*
X2212Y1760D02*
X2232Y1760D01*
X2312Y1760D02*
X2332Y1760D01*
X2412Y1760D02*
X2431Y1760D01*
X2597Y1760D02*
X2617Y1760D01*
X2691Y1760D02*
X2711Y1760D01*
X2209Y1759D02*
X2234Y1759D01*
X2309Y1759D02*
X2334Y1759D01*
X2409Y1759D02*
X2434Y1759D01*
X2595Y1759D02*
X2620Y1759D01*
X2689Y1759D02*
X2713Y1759D01*
X2207Y1758D02*
X2236Y1758D01*
X2307Y1758D02*
X2336Y1758D01*
X2407Y1758D02*
X2436Y1758D01*
X2593Y1758D02*
X2622Y1758D01*
X2686Y1758D02*
X2715Y1758D01*
X2205Y1757D02*
X2238Y1757D01*
X2305Y1757D02*
X2338Y1757D01*
X2405Y1757D02*
X2438Y1757D01*
X2591Y1757D02*
X2623Y1757D01*
X2685Y1757D02*
X2717Y1757D01*
X2204Y1756D02*
X2240Y1756D01*
X2304Y1756D02*
X2340Y1756D01*
X2404Y1756D02*
X2440Y1756D01*
X2589Y1756D02*
X2625Y1756D01*
X2683Y1756D02*
X2719Y1756D01*
X2202Y1755D02*
X2241Y1755D01*
X2302Y1755D02*
X2341Y1755D01*
X2402Y1755D02*
X2441Y1755D01*
X2588Y1755D02*
X2627Y1755D01*
X2682Y1755D02*
X2720Y1755D01*
X2201Y1754D02*
X2243Y1754D01*
X2301Y1754D02*
X2343Y1754D01*
X2401Y1754D02*
X2442Y1754D01*
X2586Y1754D02*
X2628Y1754D01*
X2680Y1754D02*
X2722Y1754D01*
X2200Y1753D02*
X2244Y1753D01*
X2300Y1753D02*
X2344Y1753D01*
X2400Y1753D02*
X2444Y1753D01*
X2585Y1753D02*
X2629Y1753D01*
X2679Y1753D02*
X2723Y1753D01*
X2199Y1752D02*
X2245Y1752D01*
X2299Y1752D02*
X2345Y1752D01*
X2399Y1752D02*
X2445Y1752D01*
X2584Y1752D02*
X2630Y1752D01*
X2678Y1752D02*
X2724Y1752D01*
X2198Y1751D02*
X2246Y1751D01*
X2298Y1751D02*
X2346Y1751D01*
X2398Y1751D02*
X2446Y1751D01*
X2583Y1751D02*
X2631Y1751D01*
X2677Y1751D02*
X2725Y1751D01*
X2197Y1750D02*
X2247Y1750D01*
X2297Y1750D02*
X2346Y1750D01*
X2397Y1750D02*
X2446Y1750D01*
X2582Y1750D02*
X2632Y1750D01*
X2676Y1750D02*
X2726Y1750D01*
X2196Y1749D02*
X2247Y1749D01*
X2296Y1749D02*
X2347Y1749D01*
X2396Y1749D02*
X2447Y1749D01*
X2582Y1749D02*
X2633Y1749D01*
X2675Y1749D02*
X2726Y1749D01*
X2196Y1748D02*
X2248Y1748D01*
X2296Y1748D02*
X2348Y1748D01*
X2396Y1748D02*
X2448Y1748D01*
X2581Y1748D02*
X2633Y1748D01*
X2675Y1748D02*
X2727Y1748D01*
X2195Y1747D02*
X2249Y1747D01*
X2295Y1747D02*
X2349Y1747D01*
X2395Y1747D02*
X2449Y1747D01*
X2580Y1747D02*
X2634Y1747D01*
X2674Y1747D02*
X2728Y1747D01*
X2194Y1746D02*
X2249Y1746D01*
X2294Y1746D02*
X2349Y1746D01*
X2394Y1746D02*
X2449Y1746D01*
X2580Y1746D02*
X2635Y1746D01*
X2673Y1746D02*
X2728Y1746D01*
X2194Y1745D02*
X2250Y1745D01*
X2294Y1745D02*
X2350Y1745D01*
X2394Y1745D02*
X2450Y1745D01*
X2579Y1745D02*
X2635Y1745D01*
X2673Y1745D02*
X2729Y1745D01*
X2193Y1744D02*
X2217Y1744D01*
X2226Y1744D02*
X2250Y1744D01*
X2293Y1744D02*
X2317Y1744D01*
X2326Y1744D02*
X2350Y1744D01*
X2393Y1744D02*
X2417Y1744D01*
X2426Y1744D02*
X2450Y1744D01*
X2579Y1744D02*
X2603Y1744D01*
X2612Y1744D02*
X2636Y1744D01*
X2672Y1744D02*
X2697Y1744D01*
X2705Y1744D02*
X2729Y1744D01*
X2193Y1743D02*
X2215Y1743D01*
X2229Y1743D02*
X2251Y1743D01*
X2293Y1743D02*
X2315Y1743D01*
X2329Y1743D02*
X2351Y1743D01*
X2393Y1743D02*
X2415Y1743D01*
X2429Y1743D02*
X2451Y1743D01*
X2578Y1743D02*
X2600Y1743D01*
X2614Y1743D02*
X2636Y1743D01*
X2672Y1743D02*
X2694Y1743D01*
X2708Y1743D02*
X2730Y1743D01*
X2192Y1742D02*
X2213Y1742D01*
X2231Y1742D02*
X2251Y1742D01*
X2292Y1742D02*
X2313Y1742D01*
X2331Y1742D02*
X2351Y1742D01*
X2392Y1742D02*
X2413Y1742D01*
X2431Y1742D02*
X2451Y1742D01*
X2578Y1742D02*
X2598Y1742D01*
X2616Y1742D02*
X2637Y1742D01*
X2671Y1742D02*
X2692Y1742D01*
X2710Y1742D02*
X2730Y1742D01*
X2192Y1741D02*
X2212Y1741D01*
X2232Y1741D02*
X2252Y1741D01*
X2292Y1741D02*
X2312Y1741D01*
X2332Y1741D02*
X2352Y1741D01*
X2392Y1741D02*
X2412Y1741D01*
X2432Y1741D02*
X2452Y1741D01*
X2577Y1741D02*
X2597Y1741D01*
X2617Y1741D02*
X2637Y1741D01*
X2671Y1741D02*
X2691Y1741D01*
X2711Y1741D02*
X2731Y1741D01*
X2191Y1740D02*
X2210Y1740D01*
X2233Y1740D02*
X2252Y1740D01*
X2291Y1740D02*
X2310Y1740D01*
X2333Y1740D02*
X2352Y1740D01*
X2391Y1740D02*
X2410Y1740D01*
X2433Y1740D02*
X2452Y1740D01*
X2577Y1740D02*
X2596Y1740D01*
X2619Y1740D02*
X2638Y1740D01*
X2671Y1740D02*
X2690Y1740D01*
X2712Y1740D02*
X2731Y1740D01*
X2191Y1739D02*
X2210Y1739D01*
X2234Y1739D02*
X2252Y1739D01*
X2291Y1739D02*
X2310Y1739D01*
X2334Y1739D02*
X2352Y1739D01*
X2391Y1739D02*
X2410Y1739D01*
X2434Y1739D02*
X2452Y1739D01*
X2576Y1739D02*
X2595Y1739D01*
X2619Y1739D02*
X2638Y1739D01*
X2670Y1739D02*
X2689Y1739D01*
X2713Y1739D02*
X2732Y1739D01*
X2191Y1738D02*
X2209Y1738D01*
X2235Y1738D02*
X2253Y1738D01*
X2291Y1738D02*
X2309Y1738D01*
X2335Y1738D02*
X2353Y1738D01*
X2391Y1738D02*
X2409Y1738D01*
X2435Y1738D02*
X2453Y1738D01*
X2576Y1738D02*
X2594Y1738D01*
X2620Y1738D02*
X2638Y1738D01*
X2670Y1738D02*
X2688Y1738D01*
X2714Y1738D02*
X2732Y1738D01*
X2191Y1737D02*
X2208Y1737D01*
X2236Y1737D02*
X2253Y1737D01*
X2291Y1737D02*
X2308Y1737D01*
X2336Y1737D02*
X2353Y1737D01*
X2390Y1737D02*
X2408Y1737D01*
X2436Y1737D02*
X2453Y1737D01*
X2576Y1737D02*
X2593Y1737D01*
X2621Y1737D02*
X2638Y1737D01*
X2670Y1737D02*
X2687Y1737D01*
X2715Y1737D02*
X2732Y1737D01*
X2190Y1736D02*
X2207Y1736D01*
X2236Y1736D02*
X2253Y1736D01*
X2290Y1736D02*
X2307Y1736D01*
X2336Y1736D02*
X2353Y1736D01*
X2390Y1736D02*
X2407Y1736D01*
X2436Y1736D02*
X2453Y1736D01*
X2576Y1736D02*
X2593Y1736D01*
X2622Y1736D02*
X2639Y1736D01*
X2669Y1736D02*
X2686Y1736D01*
X2715Y1736D02*
X2732Y1736D01*
X2190Y1735D02*
X2207Y1735D01*
X2237Y1735D02*
X2254Y1735D01*
X2290Y1735D02*
X2307Y1735D01*
X2337Y1735D02*
X2354Y1735D01*
X2390Y1735D02*
X2407Y1735D01*
X2437Y1735D02*
X2454Y1735D01*
X2575Y1735D02*
X2592Y1735D01*
X2622Y1735D02*
X2639Y1735D01*
X2669Y1735D02*
X2686Y1735D01*
X2716Y1735D02*
X2733Y1735D01*
X2190Y1734D02*
X2206Y1734D01*
X2237Y1734D02*
X2254Y1734D01*
X2290Y1734D02*
X2306Y1734D01*
X2337Y1734D02*
X2354Y1734D01*
X2390Y1734D02*
X2406Y1734D01*
X2437Y1734D02*
X2454Y1734D01*
X2575Y1734D02*
X2592Y1734D01*
X2623Y1734D02*
X2639Y1734D01*
X2669Y1734D02*
X2686Y1734D01*
X2716Y1734D02*
X2733Y1734D01*
X2190Y1733D02*
X2206Y1733D01*
X2237Y1733D02*
X2254Y1733D01*
X2290Y1733D02*
X2306Y1733D01*
X2337Y1733D02*
X2354Y1733D01*
X2390Y1733D02*
X2406Y1733D01*
X2437Y1733D02*
X2454Y1733D01*
X2575Y1733D02*
X2592Y1733D01*
X2623Y1733D02*
X2639Y1733D01*
X2669Y1733D02*
X2685Y1733D01*
X2717Y1733D02*
X2733Y1733D01*
X2190Y1732D02*
X2206Y1732D01*
X2238Y1732D02*
X2254Y1732D01*
X2290Y1732D02*
X2306Y1732D01*
X2338Y1732D02*
X2354Y1732D01*
X2389Y1732D02*
X2406Y1732D01*
X2438Y1732D02*
X2454Y1732D01*
X2575Y1732D02*
X2591Y1732D01*
X2623Y1732D02*
X2639Y1732D01*
X2669Y1732D02*
X2685Y1732D01*
X2717Y1732D02*
X2733Y1732D01*
X2189Y1731D02*
X2206Y1731D01*
X2238Y1731D02*
X2254Y1731D01*
X2289Y1731D02*
X2306Y1731D01*
X2338Y1731D02*
X2354Y1731D01*
X2389Y1731D02*
X2406Y1731D01*
X2438Y1731D02*
X2454Y1731D01*
X2575Y1731D02*
X2591Y1731D01*
X2623Y1731D02*
X2640Y1731D01*
X2669Y1731D02*
X2685Y1731D01*
X2717Y1731D02*
X2733Y1731D01*
X2189Y1730D02*
X2206Y1730D01*
X2238Y1730D02*
X2254Y1730D01*
X2289Y1730D02*
X2306Y1730D01*
X2338Y1730D02*
X2354Y1730D01*
X2389Y1730D02*
X2406Y1730D01*
X2438Y1730D02*
X2454Y1730D01*
X2575Y1730D02*
X2591Y1730D01*
X2623Y1730D02*
X2640Y1730D01*
X2669Y1730D02*
X2685Y1730D01*
X2717Y1730D02*
X2733Y1730D01*
X2189Y1729D02*
X2206Y1729D01*
X2238Y1729D02*
X2254Y1729D01*
X2289Y1729D02*
X2306Y1729D01*
X2338Y1729D02*
X2354Y1729D01*
X2389Y1729D02*
X2406Y1729D01*
X2438Y1729D02*
X2454Y1729D01*
X2575Y1729D02*
X2591Y1729D01*
X2623Y1729D02*
X2640Y1729D01*
X2668Y1729D02*
X2685Y1729D01*
X2717Y1729D02*
X2733Y1729D01*
X2189Y1728D02*
X2206Y1728D01*
X2238Y1728D02*
X2254Y1728D01*
X2289Y1728D02*
X2306Y1728D01*
X2338Y1728D02*
X2354Y1728D01*
X2389Y1728D02*
X2406Y1728D01*
X2438Y1728D02*
X2454Y1728D01*
X2575Y1728D02*
X2591Y1728D01*
X2623Y1728D02*
X2640Y1728D01*
X2668Y1728D02*
X2685Y1728D01*
X2717Y1728D02*
X2733Y1728D01*
X2189Y1727D02*
X2206Y1727D01*
X2238Y1727D02*
X2254Y1727D01*
X2289Y1727D02*
X2306Y1727D01*
X2338Y1727D02*
X2354Y1727D01*
X2389Y1727D02*
X2406Y1727D01*
X2438Y1727D02*
X2454Y1727D01*
X2575Y1727D02*
X2591Y1727D01*
X2623Y1727D02*
X2640Y1727D01*
X2669Y1727D02*
X2685Y1727D01*
X2717Y1727D02*
X2733Y1727D01*
X2189Y1726D02*
X2206Y1726D01*
X2238Y1726D02*
X2254Y1726D01*
X2289Y1726D02*
X2306Y1726D01*
X2338Y1726D02*
X2354Y1726D01*
X2389Y1726D02*
X2406Y1726D01*
X2438Y1726D02*
X2454Y1726D01*
X2575Y1726D02*
X2591Y1726D01*
X2623Y1726D02*
X2640Y1726D01*
X2669Y1726D02*
X2685Y1726D01*
X2717Y1726D02*
X2733Y1726D01*
X2190Y1725D02*
X2206Y1725D01*
X2238Y1725D02*
X2254Y1725D01*
X2290Y1725D02*
X2306Y1725D01*
X2338Y1725D02*
X2354Y1725D01*
X2390Y1725D02*
X2406Y1725D01*
X2438Y1725D02*
X2454Y1725D01*
X2575Y1725D02*
X2591Y1725D01*
X2623Y1725D02*
X2639Y1725D01*
X2669Y1725D02*
X2685Y1725D01*
X2717Y1725D02*
X2733Y1725D01*
X2190Y1724D02*
X2206Y1724D01*
X2237Y1724D02*
X2254Y1724D01*
X2290Y1724D02*
X2306Y1724D01*
X2337Y1724D02*
X2354Y1724D01*
X2390Y1724D02*
X2406Y1724D01*
X2437Y1724D02*
X2454Y1724D01*
X2575Y1724D02*
X2592Y1724D01*
X2623Y1724D02*
X2639Y1724D01*
X2669Y1724D02*
X2685Y1724D01*
X2716Y1724D02*
X2733Y1724D01*
X2190Y1723D02*
X2207Y1723D01*
X2237Y1723D02*
X2254Y1723D01*
X2290Y1723D02*
X2307Y1723D01*
X2337Y1723D02*
X2354Y1723D01*
X2390Y1723D02*
X2407Y1723D01*
X2437Y1723D02*
X2454Y1723D01*
X2575Y1723D02*
X2592Y1723D01*
X2622Y1723D02*
X2639Y1723D01*
X2669Y1723D02*
X2686Y1723D01*
X2716Y1723D02*
X2733Y1723D01*
X2190Y1722D02*
X2207Y1722D01*
X2236Y1722D02*
X2253Y1722D01*
X2290Y1722D02*
X2307Y1722D01*
X2336Y1722D02*
X2353Y1722D01*
X2390Y1722D02*
X2407Y1722D01*
X2436Y1722D02*
X2453Y1722D01*
X2576Y1722D02*
X2593Y1722D01*
X2622Y1722D02*
X2639Y1722D01*
X2669Y1722D02*
X2686Y1722D01*
X2716Y1722D02*
X2733Y1722D01*
X2190Y1721D02*
X2208Y1721D01*
X2236Y1721D02*
X2253Y1721D01*
X2290Y1721D02*
X2308Y1721D01*
X2336Y1721D02*
X2353Y1721D01*
X2390Y1721D02*
X2408Y1721D01*
X2436Y1721D02*
X2453Y1721D01*
X2576Y1721D02*
X2593Y1721D01*
X2621Y1721D02*
X2639Y1721D01*
X2670Y1721D02*
X2687Y1721D01*
X2715Y1721D02*
X2732Y1721D01*
X2191Y1720D02*
X2208Y1720D01*
X2235Y1720D02*
X2253Y1720D01*
X2291Y1720D02*
X2308Y1720D01*
X2335Y1720D02*
X2353Y1720D01*
X2391Y1720D02*
X2408Y1720D01*
X2435Y1720D02*
X2453Y1720D01*
X2576Y1720D02*
X2594Y1720D01*
X2621Y1720D02*
X2638Y1720D01*
X2670Y1720D02*
X2687Y1720D01*
X2714Y1720D02*
X2732Y1720D01*
X2191Y1719D02*
X2209Y1719D01*
X2234Y1719D02*
X2253Y1719D01*
X2291Y1719D02*
X2309Y1719D01*
X2334Y1719D02*
X2353Y1719D01*
X2391Y1719D02*
X2409Y1719D01*
X2434Y1719D02*
X2453Y1719D01*
X2576Y1719D02*
X2595Y1719D01*
X2620Y1719D02*
X2638Y1719D01*
X2670Y1719D02*
X2688Y1719D01*
X2714Y1719D02*
X2732Y1719D01*
X2191Y1718D02*
X2210Y1718D01*
X2234Y1718D02*
X2252Y1718D01*
X2291Y1718D02*
X2310Y1718D01*
X2334Y1718D02*
X2352Y1718D01*
X2391Y1718D02*
X2410Y1718D01*
X2434Y1718D02*
X2452Y1718D01*
X2577Y1718D02*
X2595Y1718D01*
X2619Y1718D02*
X2638Y1718D01*
X2670Y1718D02*
X2689Y1718D01*
X2713Y1718D02*
X2731Y1718D01*
X2192Y1717D02*
X2211Y1717D01*
X2232Y1717D02*
X2252Y1717D01*
X2292Y1717D02*
X2311Y1717D01*
X2332Y1717D02*
X2352Y1717D01*
X2392Y1717D02*
X2411Y1717D01*
X2432Y1717D02*
X2452Y1717D01*
X2577Y1717D02*
X2597Y1717D01*
X2618Y1717D02*
X2637Y1717D01*
X2671Y1717D02*
X2690Y1717D01*
X2712Y1717D02*
X2731Y1717D01*
X2192Y1716D02*
X2212Y1716D01*
X2231Y1716D02*
X2252Y1716D01*
X2292Y1716D02*
X2312Y1716D01*
X2331Y1716D02*
X2352Y1716D01*
X2392Y1716D02*
X2412Y1716D01*
X2431Y1716D02*
X2452Y1716D01*
X2577Y1716D02*
X2598Y1716D01*
X2617Y1716D02*
X2637Y1716D01*
X2671Y1716D02*
X2691Y1716D01*
X2710Y1716D02*
X2731Y1716D01*
X2193Y1715D02*
X2214Y1715D01*
X2230Y1715D02*
X2251Y1715D01*
X2293Y1715D02*
X2314Y1715D01*
X2330Y1715D02*
X2351Y1715D01*
X2393Y1715D02*
X2414Y1715D01*
X2430Y1715D02*
X2451Y1715D01*
X2578Y1715D02*
X2599Y1715D01*
X2615Y1715D02*
X2636Y1715D01*
X2672Y1715D02*
X2693Y1715D01*
X2709Y1715D02*
X2730Y1715D01*
X2193Y1714D02*
X2216Y1714D01*
X2228Y1714D02*
X2251Y1714D01*
X2293Y1714D02*
X2316Y1714D01*
X2328Y1714D02*
X2351Y1714D01*
X2393Y1714D02*
X2416Y1714D01*
X2428Y1714D02*
X2451Y1714D01*
X2578Y1714D02*
X2601Y1714D01*
X2613Y1714D02*
X2636Y1714D01*
X2672Y1714D02*
X2695Y1714D01*
X2707Y1714D02*
X2730Y1714D01*
X2194Y1713D02*
X2250Y1713D01*
X2294Y1713D02*
X2350Y1713D01*
X2394Y1713D02*
X2450Y1713D01*
X2579Y1713D02*
X2635Y1713D01*
X2673Y1713D02*
X2729Y1713D01*
X2194Y1712D02*
X2250Y1712D01*
X2294Y1712D02*
X2350Y1712D01*
X2394Y1712D02*
X2449Y1712D01*
X2579Y1712D02*
X2635Y1712D01*
X2673Y1712D02*
X2729Y1712D01*
X2195Y1711D02*
X2249Y1711D01*
X2295Y1711D02*
X2349Y1711D01*
X2395Y1711D02*
X2449Y1711D01*
X2580Y1711D02*
X2634Y1711D01*
X2674Y1711D02*
X2728Y1711D01*
X2195Y1710D02*
X2248Y1710D01*
X2295Y1710D02*
X2348Y1710D01*
X2395Y1710D02*
X2448Y1710D01*
X2581Y1710D02*
X2634Y1710D01*
X2674Y1710D02*
X2727Y1710D01*
X2196Y1709D02*
X2248Y1709D01*
X2296Y1709D02*
X2348Y1709D01*
X2396Y1709D02*
X2448Y1709D01*
X2581Y1709D02*
X2633Y1709D01*
X2675Y1709D02*
X2727Y1709D01*
X2197Y1708D02*
X2247Y1708D01*
X2297Y1708D02*
X2347Y1708D01*
X2397Y1708D02*
X2447Y1708D01*
X2582Y1708D02*
X2632Y1708D01*
X2676Y1708D02*
X2726Y1708D01*
X2198Y1707D02*
X2246Y1707D01*
X2298Y1707D02*
X2346Y1707D01*
X2398Y1707D02*
X2446Y1707D01*
X2583Y1707D02*
X2631Y1707D01*
X2677Y1707D02*
X2725Y1707D01*
X2199Y1706D02*
X2245Y1706D01*
X2299Y1706D02*
X2345Y1706D01*
X2398Y1706D02*
X2445Y1706D01*
X2584Y1706D02*
X2630Y1706D01*
X2678Y1706D02*
X2724Y1706D01*
X2200Y1705D02*
X2244Y1705D01*
X2300Y1705D02*
X2344Y1705D01*
X2399Y1705D02*
X2444Y1705D01*
X2585Y1705D02*
X2629Y1705D01*
X2679Y1705D02*
X2723Y1705D01*
X2201Y1704D02*
X2243Y1704D01*
X2301Y1704D02*
X2343Y1704D01*
X2401Y1704D02*
X2443Y1704D01*
X2586Y1704D02*
X2628Y1704D01*
X2680Y1704D02*
X2722Y1704D01*
X2202Y1703D02*
X2242Y1703D01*
X2302Y1703D02*
X2342Y1703D01*
X2402Y1703D02*
X2442Y1703D01*
X2587Y1703D02*
X2627Y1703D01*
X2681Y1703D02*
X2721Y1703D01*
X2203Y1702D02*
X2240Y1702D01*
X2303Y1702D02*
X2340Y1702D01*
X2403Y1702D02*
X2440Y1702D01*
X2589Y1702D02*
X2626Y1702D01*
X2682Y1702D02*
X2719Y1702D01*
X2205Y1701D02*
X2239Y1701D01*
X2305Y1701D02*
X2339Y1701D01*
X2405Y1701D02*
X2439Y1701D01*
X2590Y1701D02*
X2624Y1701D01*
X2684Y1701D02*
X2718Y1701D01*
X2207Y1700D02*
X2237Y1700D01*
X2307Y1700D02*
X2337Y1700D01*
X2407Y1700D02*
X2437Y1700D01*
X2592Y1700D02*
X2622Y1700D01*
X2686Y1700D02*
X2716Y1700D01*
X2209Y1699D02*
X2235Y1699D01*
X2309Y1699D02*
X2335Y1699D01*
X2409Y1699D02*
X2435Y1699D01*
X2594Y1699D02*
X2620Y1699D01*
X2688Y1699D02*
X2714Y1699D01*
X2211Y1698D02*
X2233Y1698D01*
X2311Y1698D02*
X2333Y1698D01*
X2411Y1698D02*
X2433Y1698D01*
X2596Y1698D02*
X2618Y1698D01*
X2690Y1698D02*
X2712Y1698D01*
X2214Y1697D02*
X2229Y1697D01*
X2314Y1697D02*
X2329Y1697D01*
X2414Y1697D02*
X2429Y1697D01*
X2600Y1697D02*
X2615Y1697D01*
X2693Y1697D02*
X2709Y1697D01*
X2219Y1696D02*
X2224Y1696D01*
X2319Y1696D02*
X2324Y1696D01*
X2419Y1696D02*
X2424Y1696D01*
X2605Y1696D02*
X2610Y1696D01*
X2698Y1696D02*
X2704Y1696D01*
X2216Y1657D02*
X2227Y1657D01*
X2316Y1657D02*
X2327Y1657D01*
X2416Y1657D02*
X2427Y1657D01*
X2213Y1656D02*
X2231Y1656D01*
X2313Y1656D02*
X2331Y1656D01*
X2413Y1656D02*
X2431Y1656D01*
X2210Y1655D02*
X2234Y1655D01*
X2310Y1655D02*
X2334Y1655D01*
X2410Y1655D02*
X2434Y1655D01*
X2208Y1654D02*
X2236Y1654D01*
X2308Y1654D02*
X2336Y1654D01*
X2408Y1654D02*
X2436Y1654D01*
X2206Y1653D02*
X2238Y1653D01*
X2306Y1653D02*
X2338Y1653D01*
X2406Y1653D02*
X2438Y1653D01*
X2204Y1652D02*
X2240Y1652D01*
X2304Y1652D02*
X2340Y1652D01*
X2404Y1652D02*
X2440Y1652D01*
X2203Y1651D02*
X2241Y1651D01*
X2303Y1651D02*
X2341Y1651D01*
X2403Y1651D02*
X2441Y1651D01*
X2201Y1650D02*
X2242Y1650D01*
X2301Y1650D02*
X2342Y1650D01*
X2401Y1650D02*
X2442Y1650D01*
X2200Y1649D02*
X2243Y1649D01*
X2300Y1649D02*
X2343Y1649D01*
X2400Y1649D02*
X2443Y1649D01*
X2199Y1648D02*
X2245Y1648D01*
X2299Y1648D02*
X2345Y1648D01*
X2399Y1648D02*
X2445Y1648D01*
X2198Y1647D02*
X2245Y1647D01*
X2298Y1647D02*
X2345Y1647D01*
X2398Y1647D02*
X2445Y1647D01*
X2197Y1646D02*
X2246Y1646D01*
X2297Y1646D02*
X2346Y1646D01*
X2397Y1646D02*
X2446Y1646D01*
X2196Y1645D02*
X2247Y1645D01*
X2296Y1645D02*
X2347Y1645D01*
X2396Y1645D02*
X2447Y1645D01*
X2196Y1644D02*
X2248Y1644D01*
X2296Y1644D02*
X2348Y1644D01*
X2396Y1644D02*
X2448Y1644D01*
X2195Y1643D02*
X2249Y1643D01*
X2295Y1643D02*
X2349Y1643D01*
X2395Y1643D02*
X2449Y1643D01*
X2194Y1642D02*
X2249Y1642D01*
X2294Y1642D02*
X2349Y1642D01*
X2394Y1642D02*
X2449Y1642D01*
X2194Y1641D02*
X2250Y1641D01*
X2294Y1641D02*
X2350Y1641D01*
X2394Y1641D02*
X2450Y1641D01*
X2193Y1640D02*
X2218Y1640D01*
X2226Y1640D02*
X2250Y1640D01*
X2293Y1640D02*
X2318Y1640D01*
X2326Y1640D02*
X2350Y1640D01*
X2393Y1640D02*
X2418Y1640D01*
X2426Y1640D02*
X2450Y1640D01*
X2193Y1639D02*
X2215Y1639D01*
X2229Y1639D02*
X2251Y1639D01*
X2293Y1639D02*
X2315Y1639D01*
X2329Y1639D02*
X2351Y1639D01*
X2393Y1639D02*
X2415Y1639D01*
X2429Y1639D02*
X2451Y1639D01*
X2192Y1638D02*
X2213Y1638D01*
X2231Y1638D02*
X2251Y1638D01*
X2292Y1638D02*
X2313Y1638D01*
X2331Y1638D02*
X2351Y1638D01*
X2392Y1638D02*
X2413Y1638D01*
X2431Y1638D02*
X2451Y1638D01*
X2192Y1637D02*
X2212Y1637D01*
X2232Y1637D02*
X2252Y1637D01*
X2292Y1637D02*
X2312Y1637D01*
X2332Y1637D02*
X2352Y1637D01*
X2392Y1637D02*
X2412Y1637D01*
X2432Y1637D02*
X2452Y1637D01*
X2192Y1636D02*
X2211Y1636D01*
X2233Y1636D02*
X2252Y1636D01*
X2292Y1636D02*
X2311Y1636D01*
X2333Y1636D02*
X2352Y1636D01*
X2392Y1636D02*
X2411Y1636D01*
X2433Y1636D02*
X2452Y1636D01*
X2191Y1635D02*
X2210Y1635D01*
X2234Y1635D02*
X2252Y1635D01*
X2291Y1635D02*
X2310Y1635D01*
X2334Y1635D02*
X2352Y1635D01*
X2391Y1635D02*
X2410Y1635D01*
X2434Y1635D02*
X2452Y1635D01*
X2191Y1634D02*
X2209Y1634D01*
X2235Y1634D02*
X2253Y1634D01*
X2291Y1634D02*
X2309Y1634D01*
X2335Y1634D02*
X2353Y1634D01*
X2391Y1634D02*
X2409Y1634D01*
X2435Y1634D02*
X2453Y1634D01*
X2191Y1633D02*
X2208Y1633D01*
X2236Y1633D02*
X2253Y1633D01*
X2291Y1633D02*
X2308Y1633D01*
X2336Y1633D02*
X2353Y1633D01*
X2391Y1633D02*
X2408Y1633D01*
X2436Y1633D02*
X2453Y1633D01*
X2190Y1632D02*
X2207Y1632D01*
X2236Y1632D02*
X2253Y1632D01*
X2290Y1632D02*
X2307Y1632D01*
X2336Y1632D02*
X2353Y1632D01*
X2390Y1632D02*
X2407Y1632D01*
X2436Y1632D02*
X2453Y1632D01*
X2190Y1631D02*
X2207Y1631D01*
X2237Y1631D02*
X2254Y1631D01*
X2290Y1631D02*
X2307Y1631D01*
X2337Y1631D02*
X2354Y1631D01*
X2390Y1631D02*
X2407Y1631D01*
X2437Y1631D02*
X2454Y1631D01*
X2190Y1630D02*
X2207Y1630D01*
X2237Y1630D02*
X2254Y1630D01*
X2290Y1630D02*
X2307Y1630D01*
X2337Y1630D02*
X2354Y1630D01*
X2390Y1630D02*
X2407Y1630D01*
X2437Y1630D02*
X2454Y1630D01*
X2190Y1629D02*
X2206Y1629D01*
X2237Y1629D02*
X2254Y1629D01*
X2290Y1629D02*
X2306Y1629D01*
X2337Y1629D02*
X2354Y1629D01*
X2390Y1629D02*
X2406Y1629D01*
X2437Y1629D02*
X2454Y1629D01*
X2190Y1628D02*
X2206Y1628D01*
X2238Y1628D02*
X2254Y1628D01*
X2290Y1628D02*
X2306Y1628D01*
X2338Y1628D02*
X2354Y1628D01*
X2390Y1628D02*
X2406Y1628D01*
X2438Y1628D02*
X2454Y1628D01*
X2189Y1627D02*
X2206Y1627D01*
X2238Y1627D02*
X2254Y1627D01*
X2289Y1627D02*
X2306Y1627D01*
X2338Y1627D02*
X2354Y1627D01*
X2389Y1627D02*
X2406Y1627D01*
X2438Y1627D02*
X2454Y1627D01*
X2189Y1626D02*
X2206Y1626D01*
X2238Y1626D02*
X2254Y1626D01*
X2289Y1626D02*
X2306Y1626D01*
X2338Y1626D02*
X2354Y1626D01*
X2389Y1626D02*
X2406Y1626D01*
X2438Y1626D02*
X2454Y1626D01*
X2189Y1625D02*
X2206Y1625D01*
X2238Y1625D02*
X2254Y1625D01*
X2289Y1625D02*
X2306Y1625D01*
X2338Y1625D02*
X2354Y1625D01*
X2389Y1625D02*
X2406Y1625D01*
X2438Y1625D02*
X2454Y1625D01*
X2189Y1624D02*
X2206Y1624D01*
X2238Y1624D02*
X2254Y1624D01*
X2289Y1624D02*
X2306Y1624D01*
X2338Y1624D02*
X2354Y1624D01*
X2389Y1624D02*
X2406Y1624D01*
X2438Y1624D02*
X2454Y1624D01*
X2189Y1623D02*
X2206Y1623D01*
X2238Y1623D02*
X2254Y1623D01*
X2289Y1623D02*
X2306Y1623D01*
X2338Y1623D02*
X2354Y1623D01*
X2389Y1623D02*
X2406Y1623D01*
X2438Y1623D02*
X2454Y1623D01*
X2189Y1622D02*
X2206Y1622D01*
X2238Y1622D02*
X2254Y1622D01*
X2289Y1622D02*
X2306Y1622D01*
X2338Y1622D02*
X2354Y1622D01*
X2389Y1622D02*
X2406Y1622D01*
X2438Y1622D02*
X2454Y1622D01*
X2190Y1621D02*
X2206Y1621D01*
X2238Y1621D02*
X2254Y1621D01*
X2290Y1621D02*
X2306Y1621D01*
X2338Y1621D02*
X2354Y1621D01*
X2390Y1621D02*
X2406Y1621D01*
X2438Y1621D02*
X2454Y1621D01*
X2190Y1620D02*
X2206Y1620D01*
X2237Y1620D02*
X2254Y1620D01*
X2290Y1620D02*
X2306Y1620D01*
X2337Y1620D02*
X2354Y1620D01*
X2390Y1620D02*
X2406Y1620D01*
X2437Y1620D02*
X2454Y1620D01*
X2190Y1619D02*
X2207Y1619D01*
X2237Y1619D02*
X2254Y1619D01*
X2290Y1619D02*
X2307Y1619D01*
X2337Y1619D02*
X2354Y1619D01*
X2390Y1619D02*
X2407Y1619D01*
X2437Y1619D02*
X2454Y1619D01*
X2190Y1618D02*
X2207Y1618D01*
X2237Y1618D02*
X2254Y1618D01*
X2290Y1618D02*
X2307Y1618D01*
X2337Y1618D02*
X2354Y1618D01*
X2390Y1618D02*
X2407Y1618D01*
X2437Y1618D02*
X2453Y1618D01*
X2190Y1617D02*
X2208Y1617D01*
X2236Y1617D02*
X2253Y1617D01*
X2290Y1617D02*
X2308Y1617D01*
X2336Y1617D02*
X2353Y1617D01*
X2390Y1617D02*
X2408Y1617D01*
X2436Y1617D02*
X2453Y1617D01*
X2191Y1616D02*
X2208Y1616D01*
X2235Y1616D02*
X2253Y1616D01*
X2291Y1616D02*
X2308Y1616D01*
X2335Y1616D02*
X2353Y1616D01*
X2391Y1616D02*
X2408Y1616D01*
X2435Y1616D02*
X2453Y1616D01*
X2191Y1615D02*
X2209Y1615D01*
X2235Y1615D02*
X2253Y1615D01*
X2291Y1615D02*
X2309Y1615D01*
X2335Y1615D02*
X2353Y1615D01*
X2391Y1615D02*
X2409Y1615D01*
X2435Y1615D02*
X2453Y1615D01*
X2191Y1614D02*
X2210Y1614D01*
X2234Y1614D02*
X2252Y1614D01*
X2291Y1614D02*
X2310Y1614D01*
X2334Y1614D02*
X2352Y1614D01*
X2391Y1614D02*
X2410Y1614D01*
X2434Y1614D02*
X2452Y1614D01*
X2192Y1613D02*
X2211Y1613D01*
X2233Y1613D02*
X2252Y1613D01*
X2292Y1613D02*
X2311Y1613D01*
X2333Y1613D02*
X2352Y1613D01*
X2392Y1613D02*
X2411Y1613D01*
X2433Y1613D02*
X2452Y1613D01*
X2192Y1612D02*
X2212Y1612D01*
X2232Y1612D02*
X2252Y1612D01*
X2292Y1612D02*
X2312Y1612D01*
X2331Y1612D02*
X2352Y1612D01*
X2392Y1612D02*
X2412Y1612D01*
X2431Y1612D02*
X2452Y1612D01*
X2192Y1611D02*
X2214Y1611D01*
X2230Y1611D02*
X2251Y1611D01*
X2292Y1611D02*
X2314Y1611D01*
X2330Y1611D02*
X2351Y1611D01*
X2392Y1611D02*
X2414Y1611D01*
X2430Y1611D02*
X2451Y1611D01*
X2193Y1610D02*
X2215Y1610D01*
X2228Y1610D02*
X2251Y1610D01*
X2293Y1610D02*
X2315Y1610D01*
X2328Y1610D02*
X2351Y1610D01*
X2393Y1610D02*
X2415Y1610D01*
X2428Y1610D02*
X2451Y1610D01*
X2193Y1609D02*
X2250Y1609D01*
X2293Y1609D02*
X2350Y1609D01*
X2393Y1609D02*
X2450Y1609D01*
X2194Y1608D02*
X2250Y1608D01*
X2294Y1608D02*
X2350Y1608D01*
X2394Y1608D02*
X2450Y1608D01*
X2195Y1607D02*
X2249Y1607D01*
X2295Y1607D02*
X2349Y1607D01*
X2395Y1607D02*
X2449Y1607D01*
X2195Y1606D02*
X2248Y1606D01*
X2295Y1606D02*
X2348Y1606D01*
X2395Y1606D02*
X2448Y1606D01*
X2196Y1605D02*
X2248Y1605D01*
X2296Y1605D02*
X2348Y1605D01*
X2396Y1605D02*
X2448Y1605D01*
X2197Y1604D02*
X2247Y1604D01*
X2297Y1604D02*
X2347Y1604D01*
X2397Y1604D02*
X2447Y1604D01*
X2197Y1603D02*
X2246Y1603D01*
X2297Y1603D02*
X2346Y1603D01*
X2397Y1603D02*
X2446Y1603D01*
X2198Y1602D02*
X2245Y1602D01*
X2298Y1602D02*
X2345Y1602D01*
X2398Y1602D02*
X2445Y1602D01*
X2199Y1601D02*
X2244Y1601D01*
X2299Y1601D02*
X2344Y1601D01*
X2399Y1601D02*
X2444Y1601D01*
X2200Y1600D02*
X2243Y1600D01*
X2300Y1600D02*
X2343Y1600D01*
X2400Y1600D02*
X2443Y1600D01*
X2202Y1599D02*
X2242Y1599D01*
X2302Y1599D02*
X2342Y1599D01*
X2402Y1599D02*
X2442Y1599D01*
X2203Y1598D02*
X2241Y1598D01*
X2303Y1598D02*
X2341Y1598D01*
X2403Y1598D02*
X2441Y1598D01*
X2205Y1597D02*
X2239Y1597D01*
X2305Y1597D02*
X2339Y1597D01*
X2405Y1597D02*
X2439Y1597D01*
X2206Y1596D02*
X2237Y1596D01*
X2306Y1596D02*
X2337Y1596D01*
X2406Y1596D02*
X2437Y1596D01*
X2208Y1595D02*
X2235Y1595D01*
X2308Y1595D02*
X2335Y1595D01*
X2408Y1595D02*
X2435Y1595D01*
X2211Y1594D02*
X2233Y1594D01*
X2311Y1594D02*
X2333Y1594D01*
X2411Y1594D02*
X2433Y1594D01*
X2214Y1593D02*
X2230Y1593D01*
X2314Y1593D02*
X2330Y1593D01*
X2414Y1593D02*
X2430Y1593D01*
X2218Y1592D02*
X2225Y1592D01*
X2318Y1592D02*
X2325Y1592D01*
X2418Y1592D02*
X2425Y1592D01*
X2861Y714D02*
X2875Y714D01*
X2857Y713D02*
X2878Y713D01*
X2855Y712D02*
X2880Y712D01*
X2853Y711D02*
X2883Y711D01*
X2851Y710D02*
X2884Y710D01*
X2849Y709D02*
X2886Y709D01*
X2848Y708D02*
X2887Y708D01*
X2847Y707D02*
X2889Y707D01*
X2845Y706D02*
X2890Y706D01*
X2844Y705D02*
X2891Y705D01*
X2844Y704D02*
X2892Y704D01*
X2843Y703D02*
X2892Y703D01*
X2842Y702D02*
X2893Y702D01*
X2841Y701D02*
X2894Y701D01*
X2841Y700D02*
X2895Y700D01*
X2840Y699D02*
X2895Y699D01*
X2839Y698D02*
X2896Y698D01*
X2839Y697D02*
X2862Y697D01*
X2873Y697D02*
X2896Y697D01*
X2838Y696D02*
X2860Y696D01*
X2875Y696D02*
X2897Y696D01*
X2838Y695D02*
X2858Y695D01*
X2877Y695D02*
X2897Y695D01*
X2838Y694D02*
X2857Y694D01*
X2878Y694D02*
X2898Y694D01*
X2837Y693D02*
X2856Y693D01*
X2879Y693D02*
X2898Y693D01*
X2837Y692D02*
X2855Y692D01*
X2880Y692D02*
X2898Y692D01*
X2836Y691D02*
X2854Y691D01*
X2881Y691D02*
X2899Y691D01*
X2836Y690D02*
X2854Y690D01*
X2882Y690D02*
X2899Y690D01*
X2836Y689D02*
X2853Y689D01*
X2882Y689D02*
X2899Y689D01*
X2836Y688D02*
X2852Y688D01*
X2883Y688D02*
X2899Y688D01*
X2836Y687D02*
X2852Y687D01*
X2883Y687D02*
X2900Y687D01*
X2835Y686D02*
X2852Y686D01*
X2883Y686D02*
X2900Y686D01*
X2835Y685D02*
X2852Y685D01*
X2883Y685D02*
X2900Y685D01*
X2835Y684D02*
X2852Y684D01*
X2884Y684D02*
X2900Y684D01*
X2835Y683D02*
X2852Y683D01*
X2884Y683D02*
X2900Y683D01*
X2835Y682D02*
X2851Y682D01*
X2884Y682D02*
X2900Y682D01*
X2835Y681D02*
X2852Y681D01*
X2884Y681D02*
X2900Y681D01*
X2835Y680D02*
X2852Y680D01*
X2884Y680D02*
X2900Y680D01*
X2835Y679D02*
X2852Y679D01*
X2883Y679D02*
X2900Y679D01*
X2835Y678D02*
X2852Y678D01*
X2883Y678D02*
X2900Y678D01*
X2836Y677D02*
X2852Y677D01*
X2883Y677D02*
X2900Y677D01*
X2836Y676D02*
X2853Y676D01*
X2883Y676D02*
X2899Y676D01*
X2836Y675D02*
X2853Y675D01*
X2882Y675D02*
X2899Y675D01*
X2836Y674D02*
X2854Y674D01*
X2882Y674D02*
X2899Y674D01*
X2837Y673D02*
X2854Y673D01*
X2881Y673D02*
X2899Y673D01*
X2837Y672D02*
X2855Y672D01*
X2880Y672D02*
X2898Y672D01*
X2837Y671D02*
X2856Y671D01*
X2879Y671D02*
X2898Y671D01*
X2838Y670D02*
X2857Y670D01*
X2878Y670D02*
X2898Y670D01*
X2838Y669D02*
X2858Y669D01*
X2877Y669D02*
X2897Y669D01*
X2838Y668D02*
X2860Y668D01*
X2875Y668D02*
X2897Y668D01*
X2839Y667D02*
X2863Y667D01*
X2873Y667D02*
X2896Y667D01*
X2839Y666D02*
X2896Y666D01*
X2840Y665D02*
X2895Y665D01*
X2841Y664D02*
X2895Y664D01*
X2841Y663D02*
X2894Y663D01*
X2842Y662D02*
X2893Y662D01*
X2843Y661D02*
X2892Y661D01*
X2844Y660D02*
X2892Y660D01*
X2844Y659D02*
X2891Y659D01*
X2846Y658D02*
X2890Y658D01*
X2847Y657D02*
X2888Y657D01*
X2848Y656D02*
X2887Y656D01*
X2849Y655D02*
X2886Y655D01*
X2851Y654D02*
X2884Y654D01*
X2853Y653D02*
X2882Y653D01*
X2855Y652D02*
X2880Y652D01*
X2857Y651D02*
X2878Y651D01*
X2861Y650D02*
X2874Y650D01*
X2867Y616D02*
X2868Y616D01*
X2860Y615D02*
X2875Y615D01*
X2857Y614D02*
X2878Y614D01*
X2855Y613D02*
X2881Y613D01*
X2853Y612D02*
X2883Y612D01*
X2851Y611D02*
X2884Y611D01*
X2849Y610D02*
X2886Y610D01*
X2848Y609D02*
X2887Y609D01*
X2847Y608D02*
X2889Y608D01*
X2845Y607D02*
X2890Y607D01*
X2844Y606D02*
X2891Y606D01*
X2843Y605D02*
X2892Y605D01*
X2843Y604D02*
X2893Y604D01*
X2842Y603D02*
X2893Y603D01*
X2841Y602D02*
X2894Y602D01*
X2841Y601D02*
X2895Y601D01*
X2840Y600D02*
X2895Y600D01*
X2839Y599D02*
X2896Y599D01*
X2839Y598D02*
X2862Y598D01*
X2873Y598D02*
X2896Y598D01*
X2838Y597D02*
X2860Y597D01*
X2875Y597D02*
X2897Y597D01*
X2838Y596D02*
X2858Y596D01*
X2877Y596D02*
X2897Y596D01*
X2838Y595D02*
X2857Y595D01*
X2878Y595D02*
X2898Y595D01*
X2837Y594D02*
X2856Y594D01*
X2879Y594D02*
X2898Y594D01*
X2837Y593D02*
X2855Y593D01*
X2880Y593D02*
X2898Y593D01*
X2836Y592D02*
X2854Y592D01*
X2881Y592D02*
X2899Y592D01*
X2836Y591D02*
X2854Y591D01*
X2882Y591D02*
X2899Y591D01*
X2836Y590D02*
X2853Y590D01*
X2882Y590D02*
X2899Y590D01*
X2836Y589D02*
X2852Y589D01*
X2883Y589D02*
X2899Y589D01*
X2836Y588D02*
X2852Y588D01*
X2883Y588D02*
X2900Y588D01*
X2835Y587D02*
X2852Y587D01*
X2883Y587D02*
X2900Y587D01*
X2835Y586D02*
X2852Y586D01*
X2883Y586D02*
X2900Y586D01*
X2835Y585D02*
X2852Y585D01*
X2884Y585D02*
X2900Y585D01*
X2835Y584D02*
X2852Y584D01*
X2884Y584D02*
X2900Y584D01*
X2835Y583D02*
X2851Y583D01*
X2884Y583D02*
X2900Y583D01*
X2835Y582D02*
X2852Y582D01*
X2884Y582D02*
X2900Y582D01*
X2835Y581D02*
X2852Y581D01*
X2884Y581D02*
X2900Y581D01*
X2835Y580D02*
X2852Y580D01*
X2883Y580D02*
X2900Y580D01*
X2835Y579D02*
X2852Y579D01*
X2883Y579D02*
X2900Y579D01*
X2836Y578D02*
X2852Y578D01*
X2883Y578D02*
X2900Y578D01*
X2836Y577D02*
X2853Y577D01*
X2883Y577D02*
X2899Y577D01*
X2836Y576D02*
X2853Y576D01*
X2882Y576D02*
X2899Y576D01*
X2836Y575D02*
X2854Y575D01*
X2882Y575D02*
X2899Y575D01*
X2837Y574D02*
X2854Y574D01*
X2881Y574D02*
X2899Y574D01*
X2837Y573D02*
X2855Y573D01*
X2880Y573D02*
X2898Y573D01*
X2837Y572D02*
X2856Y572D01*
X2879Y572D02*
X2898Y572D01*
X2838Y571D02*
X2857Y571D01*
X2878Y571D02*
X2898Y571D01*
X2838Y570D02*
X2858Y570D01*
X2877Y570D02*
X2897Y570D01*
X2838Y569D02*
X2860Y569D01*
X2875Y569D02*
X2897Y569D01*
X2839Y568D02*
X2863Y568D01*
X2872Y568D02*
X2896Y568D01*
X2839Y567D02*
X2896Y567D01*
X2840Y566D02*
X2895Y566D01*
X2841Y565D02*
X2895Y565D01*
X2841Y564D02*
X2894Y564D01*
X2842Y563D02*
X2893Y563D01*
X2843Y562D02*
X2892Y562D01*
X2844Y561D02*
X2892Y561D01*
X2845Y560D02*
X2891Y560D01*
X2846Y559D02*
X2890Y559D01*
X2847Y558D02*
X2888Y558D01*
X2848Y557D02*
X2887Y557D01*
X2849Y556D02*
X2886Y556D01*
X2851Y555D02*
X2884Y555D01*
X2853Y554D02*
X2882Y554D01*
X2855Y553D02*
X2880Y553D01*
X2858Y552D02*
X2878Y552D01*
X2861Y551D02*
X2874Y551D01*
D02*
G04 End of Copper1*
M02*